# Blender v2.93.4 OBJ File: ''
# www.blender.org
mtllib ship.mtl
o Cube.001
v -1.112470 0.999999 3.144955
v -1.112470 0.258144 1.048318
v -1.112470 1.000000 1.048318
v 1.258723 0.999999 3.558411
v -1.258723 -1.000001 3.558411
v 1.258723 -1.000001 3.558411
v -1.258723 1.000000 -1.186137
v -1.258723 -0.999999 -3.558411
v -1.258723 -1.000000 -1.186137
v 1.258723 -1.000000 1.186137
v -1.258723 -1.000000 1.186137
v 1.258723 1.000000 1.186137
v -1.258723 1.000001 -3.558411
v 1.258723 -0.999999 -3.558411
v 1.112470 0.999999 3.144955
v 1.112470 1.000000 1.048318
v -1.112470 1.000000 -3.144955
v -1.112470 1.000000 -1.048318
v 1.112470 1.000000 -3.144955
v 1.112470 0.258143 3.144955
v 1.112470 0.258144 1.048318
v -1.112470 0.258143 3.144955
v 1.112470 0.258144 -3.144955
v 1.112470 0.258144 -1.048318
v 1.112470 1.000000 -1.048318
v -1.112470 0.258144 -3.144955
v -0.909528 0.258144 0.474599
v -0.909528 0.097823 -0.474599
v -0.909528 0.258144 -0.474599
v -1.258723 1.000000 1.186137
v -1.258723 0.999999 3.558411
v 1.258723 1.000000 -1.186137
v 1.258723 1.000001 -3.558411
v 1.258723 -1.000000 -1.186137
v -1.112470 0.258144 -1.048318
v 0.909528 0.258144 -0.474599
v 0.909528 0.258144 0.474599
v -0.777060 0.097823 -0.100112
v -0.777060 0.097823 0.100112
v 0.000000 4.328423 0.000001
v 0.909528 0.097823 -0.474599
v -0.909528 0.097823 0.474599
v 0.909528 0.097823 0.474599
v 0.777060 0.097823 -0.100112
v 0.777060 0.097823 0.100112
v 1.112470 0.914682 -3.144955
v -1.112470 0.914682 -3.144955
v 1.112470 0.914681 1.048318
v -0.909528 0.914682 0.474599
v -0.909528 0.914682 -0.474599
v -1.112470 0.914682 -1.048318
v 0.909528 0.914682 -0.474599
v 0.909528 0.914682 0.474599
v 1.112470 0.914682 -1.048318
v 1.112470 0.914681 3.144955
v -1.112470 0.914681 3.144955
v -1.112470 0.914681 1.048318
v 1.258723 -1.727281 1.186137
v -1.258723 -1.727281 1.186137
v -1.258723 -1.727280 -1.186137
v 1.258723 -1.727280 -1.186137
v 0.450543 -1.727281 1.947711
v -1.258723 -1.000001 3.558411
v -1.258723 -1.727281 1.947711
v -0.077649 -1.691685 2.445445
v -0.554138 -1.588383 2.894457
v -0.932282 -1.427485 3.250795
v -1.175065 -1.224743 3.479577
v 1.258723 -1.000001 3.558411
v 1.258723 -1.727281 1.947712
v 1.258723 -1.224743 3.479577
v 1.258723 -1.427485 3.250794
v 1.258723 -1.588383 2.894457
v 1.258723 -1.691685 2.445445
v -0.450543 -1.727280 -1.947712
v 1.258723 -0.999999 -3.558411
v 1.258723 -1.727280 -1.947712
v 0.077649 -1.691685 -2.445445
v 0.554138 -1.588382 -2.894457
v 0.932282 -1.427484 -3.250795
v 1.175065 -1.224742 -3.479578
v -1.258723 -0.999999 -3.558411
v -1.258723 -1.727280 -1.947712
v -1.258723 -1.224742 -3.479578
v -1.258723 -1.427484 -3.250795
v -1.258723 -1.588382 -2.894457
v -1.258723 -1.691685 -2.445445
vt 0.855101 0.234580
vt 0.953548 0.312774
vt 0.855101 0.312774
vt 0.000000 0.832811
vt 0.265420 0.567392
vt 0.265420 0.832811
vt 0.589694 0.088473
vt 0.855101 0.000000
vt 0.855101 0.088473
vt 0.855101 0.442366
vt 0.855101 0.470769
vt 0.855101 0.530839
vt 0.589694 0.353893
vt 0.855101 0.265420
vt 0.855101 0.353893
vt 0.324274 0.796259
vt 0.589694 0.530839
vt 0.589694 0.796259
vt 0.574274 0.250000
vt 0.324274 0.265420
vt 0.339694 0.250000
vt 0.324274 0.176947
vt 0.339694 0.171807
vt 0.574274 0.015420
vt 0.574274 0.093613
vt 0.339694 0.015420
vt 0.589694 0.000000
vt 0.300820 0.759179
vt 0.300820 0.567392
vt 0.300820 0.567392
vt 0.855101 0.000000
vt 0.953553 0.234580
vt 0.824274 0.530839
vt 0.922726 0.765420
vt 0.824274 0.765420
vt 0.589694 0.765420
vt 0.688141 0.843613
vt 0.589694 0.843613
vt 0.589694 0.921807
vt 0.688141 1.000000
vt 0.589694 1.000000
vt 0.688141 0.921807
vt 0.688141 0.765420
vt 0.688141 0.843613
vt 0.265420 0.759178
vt 0.286695 0.794578
vt 0.265420 0.794578
vt 0.589694 0.176947
vt 0.589694 0.265420
vt 0.574274 0.171807
vt 0.324274 0.088473
vt 0.324274 0.000000
vt 0.339694 0.093613
vt 0.589694 0.530839
vt 0.855101 0.530839
vt 0.589694 0.442366
vt 0.855101 0.325490
vt 0.855101 0.353893
vt 0.409482 0.325490
vt 0.589694 0.353893
vt 0.324274 0.353893
vt 0.855101 0.176946
vt 0.855101 0.265420
vt 0.855101 0.390967
vt 0.953548 0.469161
vt 0.855101 0.469161
vt 0.953548 0.390967
vt 0.922726 0.722626
vt 0.922726 0.530839
vt 0.922726 0.530839
vt 0.922726 0.530839
vt 0.922726 0.765420
vt 0.953548 0.469161
vt 0.953553 0.000000
vt 0.953553 0.234580
vt 0.968483 0.796786
vt 0.961016 0.796786
vt 0.964749 0.234581
vt 0.944002 0.722626
vt 0.322096 0.759179
vt 0.286695 0.759178
vt 0.307970 0.794578
vt 0.286695 0.794578
vt 0.300820 0.759179
vt 0.286853 0.581358
vt 0.300820 0.567392
vt 0.265420 0.759179
vt 0.286853 0.745212
vt 0.265420 0.567392
vt 0.279386 0.745212
vt 0.279386 0.581358
vt 0.000000 0.567392
vt 0.162137 0.023659
vt 0.324274 0.000000
vt 0.324274 0.567392
vt 0.000000 0.023659
vt 0.162137 0.000000
vt 0.162137 0.567392
vt 0.961016 0.796786
vt 0.953548 0.796786
vt 0.957282 0.234581
vt 0.953548 0.234580
vt 0.589694 0.442366
vt 0.589694 0.470769
vt 0.504486 0.470769
vt 0.589694 0.265420
vt 0.324274 0.530839
vt 0.265420 0.759178
vt 0.286695 0.759178
vt 0.286695 0.759178
vt 0.324274 0.325490
vt 0.688141 0.921807
vt 0.953548 0.312774
vt 0.688141 1.000000
vt 0.953548 0.390967
vt 0.944002 0.530839
vt 0.322096 0.567392
vt 0.307970 0.759178
vt 0.824274 0.687226
vt 0.589694 0.765420
vt 0.589694 0.687226
vt 0.824274 0.530839
vt 0.589694 0.609033
vt 0.589694 0.530839
vt 0.824274 0.609033
vt 0.611091 0.630430
vt 0.802878 0.630430
vt 0.802878 0.665830
vt 0.611091 0.665830
vt 0.824274 0.765420
vt 0.855101 0.205349
vt 0.855101 0.265420
vt 0.589694 0.530839
vt 0.589694 0.796259
vt 0.324274 0.442366
vt 0.855101 0.060070
vt 0.855101 0.088473
vt 0.855101 0.176946
vt 0.855101 0.442366
vt 0.265420 0.747603
vt 0.265420 0.691915
vt 0.265420 0.567392
vt 0.265420 0.641678
vt 0.265420 0.601809
vt 0.265420 0.567392
vt 0.265420 0.567392
vt 0.589694 0.711051
vt 0.589694 0.655362
vt 0.589694 0.530839
vt 0.589694 0.605125
vt 0.589694 0.565256
vt 0.589694 0.530839
vt 0.589694 0.489331
vt 0.448797 0.489331
vt 0.589694 0.506077
vt 0.398560 0.506077
vt 0.265420 0.832811
vt 0.265420 0.832811
vt 0.265420 0.576212
vt 0.265420 0.832811
vt 0.589694 0.539659
vt 0.589694 0.796259
vt 0.589694 0.796259
vt 0.589694 0.796259
vt 0.324274 0.290182
vt 0.465171 0.306928
vt 0.324274 0.306928
vt 0.300820 0.759179
vt 0.688141 0.765420
vt 0.855101 0.265420
vt 0.855101 0.268360
vt 0.855101 0.276892
vt 0.855101 0.290182
vt 0.855101 0.306928
vt 0.589694 0.325490
vt 0.922726 0.722626
vt 0.922726 0.530839
vt 0.953553 0.000000
vt 0.265420 0.794578
vt 0.286695 0.794578
vt 0.953548 0.234580
vt 0.324274 0.470769
vt 0.855101 0.000000
vt 0.855101 0.002940
vt 0.855101 0.011472
vt 0.855101 0.024762
vt 0.855101 0.041508
vt 0.265420 0.832811
vt 0.515408 0.290182
vn 1.0000 0.0000 0.0000
vn 0.0000 -0.0000 1.0000
vn -1.0000 -0.0000 0.0000
vn 0.6932 -0.7171 -0.0722
vn 0.6958 -0.2735 0.6641
vn 0.0000 0.0000 -1.0000
vn 0.0000 1.0000 -0.0000
vn 0.7071 0.0000 -0.7071
vn -0.7071 0.0000 -0.7071
vn 0.8902 -0.4543 0.0325
vn 0.0000 -0.9994 -0.0357
vn 0.0000 -1.0000 -0.0000
vn -0.7071 -0.0000 0.7071
vn 0.7071 -0.0000 0.7071
vn -0.9835 0.1807 0.0000
vn 0.0000 0.0237 -0.9997
vn 0.0000 0.0237 0.9997
vn 0.9835 0.1807 0.0000
vn -0.0000 -0.9994 0.0357
vn -0.6932 -0.7171 0.0722
vn -0.5610 -0.1375 0.8163
vn 0.0000 0.0000 0.0000
vn -0.6420 -0.2293 0.7317
vn -0.8902 -0.4543 -0.0325
vn -0.0084 -0.9888 0.1493
vn -0.0549 -0.9538 0.2954
vn -0.1792 -0.8711 0.4573
vn -0.4817 -0.6012 0.6376
vn 0.0084 -0.9888 -0.1493
vn 0.0549 -0.9538 -0.2954
vn 0.1792 -0.8711 -0.4573
vn 0.4817 -0.6012 -0.6376
vn 0.6901 -0.7157 0.1073
vn 0.6855 -0.6899 0.2326
vn 0.6749 -0.6194 0.4011
vn 0.6547 -0.4215 0.6275
vn 0.3736 -0.1036 0.9218
vn -0.6547 -0.4215 -0.6275
vn -0.6749 -0.6194 -0.4011
vn -0.6855 -0.6899 -0.2326
vn -0.6901 -0.7157 -0.1073
usemtl Material.001
s 1
f 1/1/1 2/2/1 3/3/1
f 4/4/2 5/5/2 6/6/2
f 7/7/3 8/8/3 9/9/3
f 34/10/1 77/11/4 76/12/5
f 12/13/1 6/14/1 10/15/1
f 13/16/6 14/17/6 8/18/6
f 1/19/7 4/20/7 15/21/7
f 15/21/7 12/22/7 16/23/7
f 17/24/7 7/7/7 18/25/7
f 19/26/7 13/27/7 17/24/7
f 27/28/8 53/29/9 37/30/9
f 15/31/6 22/32/6 1/1/6
f 17/33/2 23/34/2 19/35/2
f 19/36/3 24/37/3 25/38/3
f 16/39/3 20/40/3 15/41/3
f 25/38/3 21/42/3 16/39/3
f 23/43/8 54/44/1 24/37/1
f 27/45/1 28/46/1 29/47/1
f 1/19/7 30/48/7 31/49/7
f 18/25/7 30/48/7 3/50/7
f 19/26/7 32/51/7 33/52/7
f 16/23/7 32/51/7 25/53/7
f 33/54/1 34/10/1 14/55/1
f 32/56/1 10/15/1 34/10/1
f 70/57/10 58/58/1 10/15/1
f 75/59/11 61/60/12 60/61/12
f 31/49/3 11/62/3 5/63/3
f 30/48/3 9/9/3 11/62/3
f 18/64/1 26/65/1 17/66/1
f 3/3/1 35/67/1 18/64/1
f 36/68/13 50/69/14 29/70/14
f 26/71/9 46/72/8 23/34/8
f 35/67/3 47/73/9 26/65/9
f 20/74/14 56/75/13 22/32/13
f 38/76/15 39/77/15 40/78/15
f 29/70/2 41/79/2 36/68/2
f 37/30/6 42/80/6 27/28/6
f 36/81/3 43/82/3 37/83/3
f 28/84/7 44/85/7 41/86/7
f 42/87/7 38/88/7 28/84/7
f 43/89/7 39/90/7 42/87/7
f 41/86/7 45/91/7 43/89/7
f 4/4/2 31/92/2 5/5/2
f 44/93/16 38/94/16 40/95/16
f 39/96/17 45/97/17 40/98/17
f 45/99/18 44/100/18 40/101/18
f 1/1/1 22/102/1 2/2/1
f 7/7/3 13/27/3 8/8/3
f 58/103/12 70/104/12 62/105/19
f 12/13/1 4/106/1 6/14/1
f 13/16/6 33/107/6 14/17/6
f 1/19/7 31/49/7 4/20/7
f 15/21/7 4/20/7 12/22/7
f 17/24/7 13/27/7 7/7/7
f 19/26/7 33/52/7 13/27/7
f 29/47/14 49/108/8 27/45/8
f 15/31/6 20/74/6 22/32/6
f 17/33/2 26/71/2 23/34/2
f 19/36/3 23/43/3 24/37/3
f 16/39/3 21/42/3 20/40/3
f 25/38/3 24/37/3 21/42/3
f 37/83/9 52/109/13 36/81/13
f 27/45/1 42/110/1 28/46/1
f 1/19/7 3/50/7 30/48/7
f 18/25/7 7/7/7 30/48/7
f 19/26/7 25/53/7 32/51/7
f 16/23/7 12/22/7 32/51/7
f 33/54/1 32/56/1 34/10/1
f 32/56/1 12/13/1 10/15/1
f 75/59/11 60/61/12 83/111/12
f 31/49/3 30/48/3 11/62/3
f 30/48/3 7/7/3 9/9/3
f 18/64/1 35/67/1 26/65/1
f 3/3/1 2/2/1 35/67/1
f 24/37/1 48/112/1 21/42/1
f 22/102/13 57/113/3 2/2/3
f 21/42/1 55/114/14 20/40/14
f 2/2/3 51/115/3 35/67/3
f 29/70/2 28/116/2 41/79/2
f 37/30/6 43/117/6 42/80/6
f 36/81/3 41/118/3 43/82/3
f 28/84/7 38/88/7 44/85/7
f 42/87/7 39/90/7 38/88/7
f 43/89/7 45/91/7 39/90/7
f 41/86/7 44/85/7 45/91/7
f 57/119/7 55/120/7 48/121/7
f 47/122/7 54/123/7 46/124/7
f 51/125/7 52/126/7 54/123/7
f 57/119/7 50/127/7 51/125/7
f 48/121/7 49/128/7 57/119/7
f 54/123/7 53/129/7 48/121/7
f 57/119/7 56/130/7 55/120/7
f 47/122/7 51/125/7 54/123/7
f 51/125/7 50/127/7 52/126/7
f 57/119/7 49/128/7 50/127/7
f 48/121/7 53/129/7 49/128/7
f 54/123/7 52/126/7 53/129/7
f 11/62/3 64/131/20 63/132/21
f 8/18/22 76/133/5 82/134/23
f 61/60/12 59/135/12 60/61/12
f 62/105/19 59/135/12 58/103/12
f 83/136/24 60/137/3 9/9/3
f 61/60/12 58/103/12 59/135/12
f 9/9/3 59/138/3 11/62/3
f 10/15/1 61/139/1 34/10/1
f 62/140/19 65/141/25 64/142/20
f 65/141/25 66/143/26 64/142/20
f 66/143/26 67/144/27 64/142/20
f 67/144/27 68/145/28 64/142/20
f 68/145/28 63/146/21 64/142/20
f 75/147/11 78/148/29 77/149/4
f 78/148/29 79/150/30 77/149/4
f 79/150/30 80/151/31 77/149/4
f 80/151/31 81/152/32 77/149/4
f 81/152/32 76/133/5 77/149/4
f 62/105/19 74/153/33 65/154/25
f 65/154/25 73/155/34 66/156/26
f 66/143/26 72/157/35 67/144/27
f 67/144/27 71/158/36 68/159/28
f 68/159/28 69/160/37 63/146/21
f 82/134/23 81/161/32 84/162/38
f 84/162/38 80/151/31 85/163/39
f 85/163/39 79/150/30 86/164/40
f 86/165/40 78/166/29 87/167/41
f 87/167/41 75/59/11 83/111/24
f 6/6/22 63/146/21 69/160/37
f 76/12/5 14/55/22 34/10/1
f 34/10/1 61/139/1 77/11/4
f 27/28/8 49/168/8 53/29/9
f 23/43/8 46/169/8 54/44/1
f 10/15/1 6/14/22 69/170/37
f 69/170/37 71/171/36 72/172/35
f 72/172/35 73/173/34 69/170/37
f 73/173/34 74/174/33 10/15/1
f 69/170/37 73/173/34 10/15/1
f 74/174/33 70/57/10 10/15/1
f 75/59/11 77/175/4 61/60/12
f 36/68/13 52/176/13 50/69/14
f 26/71/9 47/177/9 46/72/8
f 35/67/3 51/115/3 47/73/9
f 20/74/14 55/178/14 56/75/13
f 29/47/14 50/179/14 49/108/8
f 37/83/9 53/180/9 52/109/13
f 24/37/1 54/44/1 48/112/1
f 22/102/13 56/181/13 57/113/3
f 21/42/1 48/112/1 55/114/14
f 2/2/3 57/113/3 51/115/3
f 63/132/21 5/63/22 11/62/3
f 11/62/3 59/138/3 64/131/20
f 8/18/22 14/17/22 76/133/5
f 62/105/19 64/182/20 59/135/12
f 9/9/3 8/8/22 82/183/23
f 82/183/23 84/184/38 85/185/39
f 85/185/39 86/186/40 82/183/23
f 86/186/40 87/187/41 9/9/3
f 82/183/23 86/186/40 9/9/3
f 87/187/41 83/136/24 9/9/3
f 9/9/3 60/137/3 59/138/3
f 10/15/1 58/58/1 61/139/1
f 62/105/19 70/104/10 74/153/33
f 65/154/25 74/153/33 73/155/34
f 66/143/26 73/188/34 72/157/35
f 67/144/27 72/157/35 71/158/36
f 68/159/28 71/158/36 69/160/37
f 82/134/23 76/133/5 81/161/32
f 84/162/38 81/161/32 80/151/31
f 85/163/39 80/151/31 79/150/30
f 86/165/40 79/189/30 78/166/29
f 87/167/41 78/166/29 75/59/11
f 6/6/22 5/5/22 63/146/21
